<svg width="321" height="105" viewBox="0 0 321 105" fill="none" xmlns="http://www.w3.org/2000/svg">
<g clip-path="url(#clip0_1_890)">
<path d="M295.438 -0.000148435H25.5769C24.5932 -0.000148435 23.6213 -0.000148434 22.6402 0.00507997C21.819 0.0103084 21.0043 0.0254969 20.1752 0.0382804C18.3739 0.0589373 16.5769 0.21337 14.7997 0.500237C13.025 0.793348 11.3059 1.34595 9.70054 2.13934C8.09715 2.93945 6.63209 3.97911 5.3585 5.2206C4.07823 6.4586 3.01102 7.88956 2.19791 9.45846C1.38257 11.0242 0.817201 12.7021 0.521346 14.4341C0.222678 16.164 0.0619616 17.9137 0.04064 19.6678C0.0157463 20.4693 0.0131175 21.2735 0 22.0751V82.5005C0.0131175 83.3122 0.0157463 84.0985 0.04064 84.9105C0.0619682 86.6645 0.222684 88.4142 0.521346 90.1439C0.816384 91.8769 1.38178 93.5558 2.19791 95.1221C3.01065 96.686 4.07801 98.1111 5.3585 99.3422C6.62726 100.589 8.09327 101.63 9.70054 102.424C11.3059 103.219 13.0248 103.775 14.7997 104.073C16.5772 104.357 18.374 104.512 20.1752 104.535C21.0043 104.553 21.819 104.563 22.6402 104.563C23.6213 104.568 24.5932 104.568 25.5769 104.568H295.438C296.402 104.568 297.381 104.568 298.345 104.563C299.163 104.563 300.001 104.553 300.818 104.535C302.616 104.513 304.41 104.358 306.183 104.073C307.964 103.773 309.689 103.217 311.302 102.424C312.908 101.629 314.373 100.589 315.64 99.3422C316.918 98.1063 317.987 96.6822 318.81 95.1221C319.62 93.5546 320.18 91.8759 320.471 90.1439C320.77 88.4139 320.936 86.6646 320.969 84.9105C320.979 84.0985 320.979 83.3122 320.979 82.5005C321 81.5508 321 80.6062 321 79.6411V24.9292C321 23.9719 321 23.0222 320.979 22.0751C320.979 21.2735 320.979 20.4693 320.969 19.6677C320.936 17.9135 320.77 16.1641 320.471 14.434C320.179 12.703 319.619 11.0253 318.81 9.45836C317.154 6.31367 314.528 3.75392 311.302 2.13911C309.689 1.34765 307.964 0.795198 306.183 0.500001C304.41 0.211871 302.616 0.0573844 300.818 0.0379144C300.001 0.0251571 299.163 0.00983783 298.345 0.00474013C297.381 -0.000488281 296.402 -0.000488281 295.438 -0.000488281V-0.000148435Z" fill="#A6A6A6"/>
<path d="M22.6534 102.28C21.8361 102.28 21.0385 102.27 20.2276 102.252C18.5478 102.231 16.8719 102.089 15.2136 101.826C13.6674 101.567 12.1695 101.084 10.7694 100.394C9.38214 99.7094 8.11683 98.8121 7.02196 97.7362C5.91124 96.6729 4.98652 95.4397 4.28443 94.0854C3.57461 92.7224 3.08337 91.2613 2.82783 89.7532C2.55186 88.1327 2.40256 86.4941 2.38119 84.8515C2.36418 84.3002 2.34192 82.4645 2.34192 82.4645V22.0749C2.34192 22.0749 2.36563 20.2674 2.38133 19.7364C2.40178 18.0965 2.55022 16.4604 2.82536 14.8424C3.08138 13.3302 3.57299 11.8649 4.2832 10.4974C4.9827 9.14402 5.90229 7.9099 7.00632 6.84283C8.10911 5.76563 9.37847 4.86368 10.7681 4.16989C12.165 3.48205 13.6601 3.0027 15.2032 2.74792C16.8668 2.48275 18.5486 2.33938 20.2342 2.31903L22.6547 2.28711H298.332L300.782 2.32031C302.452 2.33965 304.118 2.48174 305.767 2.74535C307.326 3.00334 308.836 3.48602 310.249 4.17755C313.033 5.57574 315.298 7.78782 316.727 10.5037C317.426 11.8618 317.91 13.3152 318.163 14.8144C318.441 16.4456 318.597 18.0945 318.629 19.7479C318.637 20.4883 318.637 21.2835 318.637 22.0749C318.658 23.0552 318.658 23.9883 318.658 24.9291V79.6409C318.658 80.5907 318.658 81.5174 318.637 82.4517C318.637 83.3018 318.637 84.0806 318.627 84.8821C318.595 86.506 318.442 88.1255 318.168 89.7276C317.918 91.2466 317.429 92.719 316.72 94.0933C316.013 95.4328 315.093 96.6554 313.995 97.7158C312.899 98.7975 311.632 99.7001 310.241 100.389C308.832 101.084 307.324 101.569 305.767 101.826C304.109 102.09 302.433 102.233 300.753 102.252C299.967 102.27 299.144 102.28 298.345 102.28L295.438 102.286L22.6534 102.28Z" fill="black"/>
<path d="M66.4427 53.0702C66.4716 50.8882 67.0663 48.7488 68.1715 46.851C69.2768 44.9532 70.8567 43.3587 72.7642 42.2158C71.5524 40.5292 69.9538 39.1412 68.0953 38.1621C66.2368 37.1829 64.1696 36.6396 62.0579 36.5752C57.5533 36.1144 53.1863 39.202 50.8909 39.202C48.551 39.202 45.0168 36.621 41.211 36.6973C38.7494 36.7748 36.3503 37.4724 34.2475 38.7221C32.1447 39.9719 30.41 41.7311 29.2124 43.8285C24.0244 52.5819 27.8942 65.4466 32.8638 72.5222C35.3502 75.9869 38.2561 79.8571 42.0585 79.7199C45.7793 79.5695 47.1689 77.4077 51.6602 77.4077C56.1099 77.4077 57.4137 79.7199 61.2931 79.6326C65.2857 79.5695 67.8012 76.1525 70.2004 72.6549C71.9869 70.1862 73.3616 67.4577 74.2736 64.5705C71.954 63.6144 69.9745 62.014 68.582 59.969C67.1894 57.9239 66.4454 55.5245 66.4427 53.0702Z" fill="white"/>
<path d="M59.115 31.9216C61.292 29.3748 62.3645 26.1013 62.1048 22.7964C58.7789 23.1368 55.7067 24.6859 53.5004 27.1349C52.4216 28.3314 51.5954 29.7233 51.069 31.2311C50.5426 32.7389 50.3262 34.333 50.4324 35.9223C52.0959 35.939 53.7416 35.5876 55.2456 34.8946C56.7496 34.2016 58.0726 33.1851 59.115 31.9216Z" fill="white"/>
<path d="M113.476 70.949H100.779L97.7297 79.7234H92.3516L104.378 47.2603H109.966L121.993 79.7234H116.523L113.476 70.949ZM102.094 66.9H112.159L107.197 52.6598H107.058L102.094 66.9Z" fill="white"/>
<path d="M147.966 67.8906C147.966 75.2457 143.927 79.9711 137.831 79.9711C136.287 80.0498 134.751 79.7032 133.4 78.9708C132.048 78.2385 130.936 77.1501 130.19 75.8302H130.074V87.5533H125.089V56.0552H129.915V59.9919H130.006C130.787 58.6783 131.918 57.5955 133.28 56.8587C134.641 56.1219 136.183 55.7587 137.739 55.8076C143.903 55.8076 147.966 60.5561 147.966 67.8906ZM142.842 67.8906C142.842 63.0988 140.301 59.9485 136.424 59.9485C132.615 59.9485 130.053 63.1652 130.053 67.8906C130.053 72.6595 132.615 75.8533 136.424 75.8533C140.301 75.8533 142.842 72.7259 142.842 67.8906Z" fill="white"/>
<path d="M174.697 67.8906C174.697 75.2456 170.658 79.9711 164.562 79.9711C163.018 80.0498 161.482 79.7032 160.13 78.9708C158.779 78.2385 157.667 77.1501 156.92 75.8302H156.805V87.5533H151.82V56.0552H156.645V59.9918H156.737C157.517 58.6783 158.649 57.5955 160.01 56.8587C161.372 56.1219 162.913 55.7587 164.47 55.8076C170.634 55.8076 174.697 60.556 174.697 67.8906ZM169.573 67.8906C169.573 63.0988 167.032 59.9484 163.155 59.9484C159.346 59.9484 156.784 63.1651 156.784 67.8906C156.784 72.6595 159.346 75.8532 163.155 75.8532C167.032 75.8532 169.573 72.7259 169.573 67.8906H169.573Z" fill="white"/>
<path d="M192.364 70.6782C192.734 73.8974 195.943 76.0111 200.328 76.0111C204.53 76.0111 207.553 73.8973 207.553 70.9946C207.553 68.4749 205.73 66.9661 201.412 65.9322L197.095 64.9186C190.978 63.4788 188.139 60.691 188.139 56.1672C188.139 50.566 193.147 46.7188 200.26 46.7188C207.299 46.7188 212.124 50.566 212.286 56.1672H207.254C206.953 52.9275 204.205 50.972 200.189 50.972C196.173 50.972 193.425 52.9505 193.425 55.8302C193.425 58.1253 195.18 59.4758 199.474 60.5096L203.144 61.3878C209.978 62.963 212.818 65.6385 212.818 70.3869C212.818 76.4603 207.854 80.2642 199.958 80.2642C192.571 80.2642 187.583 76.5497 187.261 70.6779L192.364 70.6782Z" fill="white"/>
<path d="M223.577 50.4536V56.0548H228.196V59.902H223.577V72.9501C223.577 74.9771 224.502 75.9217 226.532 75.9217C227.08 75.9124 227.628 75.8749 228.172 75.8093V79.6336C227.259 79.7998 226.331 79.8751 225.403 79.8582C220.486 79.8582 218.568 78.0584 218.568 73.4682V59.902H215.037V56.0548H218.568V50.4536H223.577Z" fill="white"/>
<path d="M230.87 67.8901C230.87 60.4432 235.371 55.7637 242.389 55.7637C249.43 55.7637 253.91 60.4431 253.91 67.8901C253.91 75.3574 249.454 80.0165 242.389 80.0165C235.326 80.0165 230.87 75.3574 230.87 67.8901ZM248.831 67.8901C248.831 62.7817 246.428 59.7667 242.389 59.7667C238.349 59.7667 235.95 62.8047 235.95 67.8901C235.95 73.0189 238.349 76.011 242.389 76.011C246.428 76.011 248.83 73.0189 248.83 67.8901H248.831Z" fill="white"/>
<path d="M258.02 56.055H262.775V60.0835H262.89C263.212 58.8253 263.968 57.7134 265.032 56.9347C266.096 56.1559 267.402 55.7579 268.732 55.8073C269.306 55.8054 269.879 55.8662 270.44 55.9886V60.5328C269.714 60.3168 268.958 60.2177 268.2 60.2392C267.476 60.2106 266.754 60.3351 266.083 60.604C265.413 60.873 264.811 61.2801 264.317 61.7974C263.824 62.3148 263.451 62.93 263.224 63.601C262.998 64.272 262.923 64.9828 263.005 65.6846V79.7232H258.02L258.02 56.055Z" fill="white"/>
<path d="M293.425 72.7713C292.754 77.0679 288.46 80.0165 282.967 80.0165C275.902 80.0165 271.516 75.4034 271.516 68.0024C271.516 60.5785 275.925 55.7637 282.757 55.7637C289.477 55.7637 293.702 60.2619 293.702 67.4382V69.1028H276.549V69.3963C276.47 70.2674 276.582 71.1449 276.877 71.9706C277.173 72.7962 277.645 73.5512 278.263 74.1852C278.881 74.8193 279.63 75.318 280.461 75.6482C281.292 75.9784 282.185 76.1325 283.082 76.1003C284.26 76.2079 285.442 75.942 286.453 75.3422C287.464 74.7424 288.248 73.8407 288.691 72.7713L293.425 72.7713ZM276.572 65.7073H288.714C288.759 64.9241 288.637 64.1404 288.357 63.4052C288.076 62.6701 287.642 61.9995 287.083 61.4354C286.523 60.8713 285.85 60.4261 285.106 60.1275C284.362 59.8289 283.562 59.6834 282.757 59.7003C281.946 59.6956 281.141 59.8476 280.39 60.1475C279.638 60.4475 278.956 60.8895 278.381 61.448C277.806 62.0064 277.35 62.6704 277.039 63.4014C276.729 64.1325 276.57 64.9162 276.572 65.7074V65.7073Z" fill="white"/>
<path d="M101.469 22.8248C102.514 22.7517 103.563 22.9056 104.54 23.2753C105.517 23.6451 106.397 24.2215 107.117 24.9629C107.838 25.7044 108.38 26.5924 108.706 27.563C109.032 28.5336 109.132 29.5625 109.001 30.5755C109.001 35.5589 106.237 38.4234 101.469 38.4234H95.6876V22.8248H101.469ZM98.1736 36.2174H101.191C101.938 36.2609 102.686 36.1416 103.379 35.8681C104.073 35.5946 104.695 35.1739 105.201 34.6365C105.706 34.0991 106.083 33.4586 106.302 32.7616C106.522 32.0646 106.579 31.3286 106.47 30.6073C106.571 29.8888 106.508 29.1575 106.285 28.4656C106.062 27.7737 105.685 27.1384 105.18 26.6053C104.676 26.0722 104.057 25.6544 103.367 25.3819C102.677 25.1094 101.934 24.989 101.191 25.0292H98.1736V36.2174Z" fill="white"/>
<path d="M111.809 32.5321C111.733 31.7585 111.824 30.978 112.075 30.2406C112.327 29.5032 112.734 28.8252 113.271 28.2502C113.807 27.6751 114.461 27.2156 115.19 26.9012C115.919 26.5867 116.708 26.4243 117.505 26.4243C118.303 26.4243 119.091 26.5867 119.821 26.9012C120.55 27.2156 121.204 27.6751 121.74 28.2502C122.276 28.8252 122.683 29.5032 122.935 30.2406C123.187 30.978 123.278 31.7585 123.202 32.5321C123.279 33.3065 123.189 34.0881 122.938 34.8266C122.687 35.5652 122.28 36.2444 121.744 36.8207C121.207 37.3969 120.553 37.8573 119.823 38.1724C119.093 38.4875 118.304 38.6503 117.505 38.6503C116.707 38.6503 115.917 38.4875 115.187 38.1724C114.457 37.8573 113.803 37.3969 113.267 36.8207C112.73 36.2444 112.323 35.5652 112.072 34.8266C111.821 34.0881 111.731 33.3065 111.809 32.5321ZM120.75 32.5321C120.75 29.9804 119.573 28.4883 117.509 28.4883C115.437 28.4883 114.271 29.9804 114.271 32.5321C114.271 35.1042 115.437 36.5849 117.509 36.5849C119.573 36.5849 120.75 35.094 120.75 32.5321H120.75Z" fill="white"/>
<path d="M138.346 38.4229H135.873L133.376 29.7532H133.188L130.702 38.4229H128.252L124.923 26.6514H127.341L129.505 35.6338H129.683L132.166 26.6514H134.453L136.937 35.6338H137.125L139.278 26.6514H141.662L138.346 38.4229Z" fill="white"/>
<path d="M144.463 26.6514H146.758V28.5214H146.936C147.238 27.8498 147.748 27.2868 148.394 26.9108C149.04 26.5349 149.79 26.3648 150.54 26.4242C151.128 26.3811 151.718 26.4675 152.267 26.6769C152.816 26.8863 153.309 27.2133 153.711 27.6338C154.112 28.0543 154.412 28.5574 154.587 29.1059C154.762 29.6544 154.808 30.2343 154.721 30.8025V38.4229H152.337V31.3858C152.337 29.4941 151.494 28.5534 149.731 28.5534C149.332 28.5352 148.933 28.6014 148.563 28.7474C148.193 28.8933 147.859 29.1156 147.585 29.3989C147.311 29.6823 147.103 30.02 146.976 30.3889C146.848 30.7579 146.804 31.1493 146.847 31.5364V38.423H144.463L144.463 26.6514Z" fill="white"/>
<path d="M158.52 22.0562H160.904V38.423H158.52V22.0562Z" fill="white"/>
<path d="M164.217 32.5318C164.141 31.7582 164.232 30.9776 164.484 30.2402C164.736 29.5028 165.143 28.8248 165.679 28.2497C166.216 27.6746 166.87 27.2151 167.599 26.9007C168.328 26.5863 169.117 26.4238 169.914 26.4238C170.712 26.4238 171.501 26.5863 172.23 26.9007C172.959 27.2151 173.613 27.6746 174.149 28.2497C174.686 28.8248 175.093 29.5028 175.345 30.2402C175.596 30.9776 175.687 31.7582 175.611 32.5318C175.689 33.3062 175.599 34.0878 175.348 34.8264C175.097 35.565 174.69 36.2442 174.153 36.8204C173.617 37.3966 172.962 37.857 172.232 38.1721C171.502 38.4872 170.713 38.65 169.914 38.65C169.116 38.65 168.326 38.4872 167.596 38.1721C166.866 37.857 166.212 37.3966 165.676 36.8204C165.139 36.2442 164.732 35.565 164.481 34.8264C164.23 34.0878 164.14 33.3062 164.217 32.5318ZM173.158 32.5318C173.158 29.9802 171.982 28.488 169.918 28.488C167.846 28.488 166.68 29.9802 166.68 32.5318C166.68 35.1039 167.846 36.5846 169.918 36.5846C171.982 36.5846 173.158 35.0937 173.158 32.5318H173.158Z" fill="white"/>
<path d="M178.121 35.0941C178.121 32.9751 179.74 31.7536 182.614 31.5799L185.886 31.3961V30.3801C185.886 29.1368 185.042 28.4347 183.413 28.4347C182.082 28.4347 181.16 28.9109 180.895 29.7431H178.587C178.831 27.7212 180.783 26.4243 183.523 26.4243C186.551 26.4243 188.259 27.8935 188.259 30.3801V38.4231H185.964V36.7688H185.776C185.393 37.3622 184.855 37.846 184.218 38.1707C183.58 38.4954 182.866 38.6494 182.147 38.617C181.64 38.6684 181.128 38.6157 180.643 38.4623C180.158 38.3088 179.712 38.0581 179.332 37.7261C178.953 37.3942 178.649 36.9885 178.441 36.5352C178.232 36.0818 178.123 35.5909 178.121 35.0941ZM185.886 34.0882V33.1041L182.936 33.2879C181.273 33.3963 180.518 33.9478 180.518 34.9855C180.518 36.045 181.461 36.6615 182.758 36.6615C183.138 36.699 183.522 36.6616 183.887 36.5516C184.251 36.4416 184.59 36.2611 184.882 36.021C185.173 35.781 185.413 35.4861 185.585 35.1541C185.758 34.822 185.86 34.4595 185.886 34.0882Z" fill="white"/>
<path d="M191.392 32.5322C191.392 28.8125 193.354 26.4562 196.406 26.4562C197.161 26.4223 197.91 26.5985 198.566 26.9642C199.222 27.3299 199.758 27.87 200.11 28.5214H200.289V22.0562H202.672V38.423H200.388V36.5632H200.199C199.82 37.2102 199.265 37.7436 198.597 38.1056C197.928 38.4676 197.171 38.6445 196.406 38.617C193.333 38.6171 191.392 36.2607 191.392 32.5322ZM193.855 32.5322C193.855 35.0289 195.062 36.5313 197.082 36.5313C199.091 36.5313 200.333 35.0073 200.333 32.5424C200.333 30.089 199.078 28.5432 197.082 28.5432C195.075 28.5432 193.855 30.0558 193.855 32.5322H193.855Z" fill="white"/>
<path d="M212.535 32.5321C212.459 31.7585 212.55 30.978 212.802 30.2406C213.054 29.5032 213.461 28.8252 213.997 28.2502C214.533 27.6751 215.187 27.2156 215.916 26.9012C216.646 26.5867 217.434 26.4243 218.232 26.4243C219.029 26.4243 219.818 26.5867 220.547 26.9012C221.276 27.2156 221.93 27.6751 222.466 28.2502C223.003 28.8252 223.41 29.5032 223.661 30.2406C223.913 30.978 224.004 31.7585 223.928 32.5321C224.005 33.3065 223.916 34.0881 223.665 34.8266C223.414 35.5652 223.007 36.2444 222.47 36.8207C221.934 37.3969 221.28 37.8573 220.55 38.1724C219.82 38.4875 219.03 38.6503 218.232 38.6503C217.433 38.6503 216.644 38.4875 215.914 38.1724C215.184 37.8573 214.53 37.3969 213.993 36.8207C213.457 36.2444 213.05 35.5652 212.799 34.8266C212.548 34.0881 212.458 33.3065 212.535 32.5321ZM221.476 32.5321C221.476 29.9804 220.3 28.4883 218.236 28.4883C216.163 28.4883 214.998 29.9804 214.998 32.5321C214.998 35.1042 216.164 36.5849 218.236 36.5849C220.3 36.5849 221.476 35.094 221.476 32.5321Z" fill="white"/>
<path d="M227.127 26.6514H229.421V28.5214H229.6C229.902 27.8498 230.411 27.2868 231.058 26.9108C231.704 26.5349 232.454 26.3648 233.204 26.4242C233.792 26.3811 234.382 26.4675 234.931 26.6769C235.48 26.8863 235.973 27.2133 236.375 27.6338C236.776 28.0543 237.076 28.5574 237.25 29.1059C237.425 29.6544 237.471 30.2343 237.385 30.8025V38.4229H235.001V31.3858C235.001 29.4941 234.158 28.5534 232.395 28.5534C231.996 28.5352 231.597 28.6014 231.227 28.7474C230.857 28.8933 230.523 29.1156 230.249 29.3989C229.975 29.6823 229.767 30.02 229.64 30.3889C229.512 30.7579 229.468 31.1493 229.51 31.5364V38.423H227.127V26.6514Z" fill="white"/>
<path d="M250.855 23.7212V26.7056H253.472V28.6624H250.855V34.7154C250.855 35.9485 251.377 36.4884 252.563 36.4884C252.867 36.4875 253.171 36.4696 253.472 36.4348V38.3699C253.044 38.4445 252.611 38.4843 252.176 38.4886C249.525 38.4886 248.469 37.5798 248.469 35.3102V28.6623H246.551V26.7055H248.469V23.7212H250.855Z" fill="white"/>
<path d="M256.729 22.0562H259.091V28.5432H259.28C259.597 27.8653 260.121 27.299 260.78 26.9217C261.439 26.5443 262.201 26.3742 262.963 26.4344C263.548 26.4034 264.132 26.4986 264.675 26.713C265.218 26.9275 265.705 27.2561 266.102 27.6752C266.5 28.0944 266.797 28.5938 266.974 29.1379C267.15 29.682 267.201 30.2574 267.123 30.8229V38.423H264.737V31.3961C264.737 29.5158 263.838 28.5636 262.154 28.5636C261.744 28.5308 261.332 28.5857 260.946 28.7244C260.561 28.8631 260.211 29.0822 259.921 29.3665C259.631 29.6508 259.409 29.9933 259.269 30.3701C259.13 30.7469 259.076 31.1489 259.112 31.5479V38.423H256.729L256.729 22.0562Z" fill="white"/>
<path d="M281.023 35.2444C280.699 36.3202 279.997 37.2509 279.041 37.8734C278.084 38.496 276.933 38.7709 275.789 38.65C274.993 38.6705 274.202 38.5219 273.471 38.2147C272.74 37.9074 272.087 37.4489 271.556 36.8708C271.025 36.2927 270.629 35.6089 270.397 34.8669C270.164 34.125 270.1 33.3426 270.209 32.574C270.103 31.8032 270.168 31.0191 270.4 30.2749C270.632 29.5307 271.026 28.8438 271.554 28.2606C272.082 27.6774 272.732 27.2117 273.461 26.8948C274.19 26.5779 274.98 26.4174 275.778 26.424C279.139 26.424 281.167 28.6618 281.167 32.3583V33.1689H272.637V33.2991C272.6 33.7311 272.656 34.1659 272.801 34.5757C272.946 34.9855 273.178 35.3611 273.481 35.6786C273.783 35.9962 274.151 36.2485 274.56 36.4194C274.969 36.5904 275.41 36.6762 275.854 36.6714C276.425 36.7381 277.002 36.6381 277.514 36.3839C278.026 36.1298 278.448 35.7331 278.728 35.2443L281.023 35.2444ZM272.637 31.4507H278.739C278.769 31.0557 278.714 30.6588 278.577 30.2857C278.44 29.9126 278.225 29.5715 277.945 29.2844C277.665 28.9972 277.326 28.7702 276.951 28.6182C276.576 28.4661 276.172 28.3922 275.765 28.4013C275.353 28.3962 274.944 28.4717 274.562 28.6231C274.18 28.7746 273.833 28.9991 273.542 29.2833C273.25 29.5675 273.02 29.9057 272.865 30.2779C272.709 30.6502 272.632 31.049 272.637 31.4507H272.637Z" fill="white"/>
</g>
<defs>
<clipPath id="clip0_1_890">
<rect width="321" height="104.568" fill="white"/>
</clipPath>
</defs>
</svg>
