<svg width="227" height="74" viewBox="0 0 227 74" fill="none" xmlns="http://www.w3.org/2000/svg">
<path d="M92.8175 63.0036C89.6195 63.0036 86.9842 61.908 84.9115 59.7169C82.8387 57.5257 81.8024 54.7571 81.8024 51.4111C81.8024 48.0947 82.8091 45.341 84.8226 43.1498C86.8361 40.929 89.4123 39.8186 92.551 39.8186C95.7785 39.8186 98.3398 40.8698 100.235 42.9721C102.16 45.0448 103.122 47.9615 103.122 51.722L103.078 52.1662H85.9774C86.0367 54.2981 86.7473 56.0155 88.1094 57.3184C89.4715 58.6213 91.1001 59.2727 92.9951 59.2727C95.6009 59.2727 97.644 57.9698 99.1245 55.3641L102.767 57.1407C101.789 58.9766 100.427 60.4127 98.6803 61.4491C96.9629 62.4854 95.0086 63.0036 92.8175 63.0036ZM86.2883 48.7906H98.7692C98.6507 47.2804 98.0289 46.0368 96.9037 45.0597C95.8081 44.0529 94.3276 43.5495 92.4621 43.5495C90.9224 43.5495 89.5899 44.0233 88.4647 44.9708C87.3691 45.9184 86.6437 47.1916 86.2883 48.7906ZM116.63 59.2727C118.644 59.2727 120.287 58.5472 121.56 57.0963C122.893 55.6454 123.559 53.7503 123.559 51.4111C123.559 49.1311 122.893 47.2508 121.56 45.7703C120.258 44.2898 118.614 43.5495 116.63 43.5495C114.676 43.5495 113.033 44.2898 111.7 45.7703C110.368 47.2508 109.701 49.1311 109.701 51.4111C109.701 53.7207 110.368 55.601 111.7 57.0519C113.033 58.5324 114.676 59.2727 116.63 59.2727ZM115.964 63.0036C113.121 63.0036 110.679 61.8784 108.635 59.628C106.622 57.348 105.615 54.609 105.615 51.4111C105.615 48.2132 106.622 45.4742 108.635 43.1942C110.679 40.9438 113.121 39.8186 115.964 39.8186C117.563 39.8186 119.014 40.1591 120.317 40.8402C121.649 41.5212 122.671 42.4243 123.381 43.5495H123.559L123.381 40.5292V30.4913H127.468V62.293H123.559V59.2727H123.381C122.671 60.3979 121.649 61.301 120.317 61.9821C119.014 62.6631 117.563 63.0036 115.964 63.0036ZM142.004 63.0036C138.807 63.0036 136.171 61.908 134.098 59.7169C132.026 57.5257 130.989 54.7571 130.989 51.4111C130.989 48.0947 131.996 45.341 134.01 43.1498C136.023 40.929 138.599 39.8186 141.738 39.8186C144.966 39.8186 147.527 40.8698 149.422 42.9721C151.347 45.0448 152.309 47.9615 152.309 51.722L152.264 52.1662H135.164C135.224 54.2981 135.934 56.0155 137.296 57.3184C138.658 58.6213 140.287 59.2727 142.182 59.2727C144.788 59.2727 146.831 57.9698 148.311 55.3641L151.954 57.1407C150.976 58.9766 149.614 60.4127 147.867 61.4491C146.15 62.4854 144.196 63.0036 142.004 63.0036ZM135.475 48.7906H147.956C147.838 47.2804 147.216 46.0368 146.091 45.0597C144.995 44.0529 143.515 43.5495 141.649 43.5495C140.109 43.5495 138.777 44.0233 137.652 44.9708C136.556 45.9184 135.831 47.1916 135.475 48.7906ZM175.189 62.293H170.259L163.463 52.0329L160.132 55.3197V62.293H156.046V30.4913H160.132V50.0786L169.548 40.5292H174.789V40.7069L166.306 49.1459L175.189 62.1153V62.293ZM186.637 63.0036C183.439 63.0036 180.804 61.908 178.731 59.7169C176.658 57.5257 175.622 54.7571 175.622 51.4111C175.622 48.0947 176.629 45.341 178.642 43.1498C180.656 40.929 183.232 39.8186 186.371 39.8186C189.598 39.8186 192.159 40.8698 194.055 42.9721C195.979 45.0448 196.942 47.9615 196.942 51.722L196.897 52.1662H179.797C179.856 54.2981 180.567 56.0155 181.929 57.3184C183.291 58.6213 184.92 59.2727 186.815 59.2727C189.42 59.2727 191.464 57.9698 192.944 55.3641L196.586 57.1407C195.609 58.9766 194.247 60.4127 192.5 61.4491C190.783 62.4854 188.828 63.0036 186.637 63.0036ZM180.108 48.7906H192.589C192.47 47.2804 191.849 46.0368 190.723 45.0597C189.628 44.0529 188.147 43.5495 186.282 43.5495C184.742 43.5495 183.41 44.0233 182.284 44.9708C181.189 45.9184 180.463 47.1916 180.108 48.7906ZM210.667 63.0036C207.469 63.0036 204.833 61.908 202.761 59.7169C200.688 57.5257 199.652 54.7571 199.652 51.4111C199.652 48.0947 200.658 45.341 202.672 43.1498C204.685 40.929 207.262 39.8186 210.4 39.8186C213.628 39.8186 216.189 40.8698 218.084 42.9721C220.009 45.0448 220.971 47.9615 220.971 51.722L220.927 52.1662H203.827C203.886 54.2981 204.597 56.0155 205.959 57.3184C207.321 58.6213 208.949 59.2727 210.844 59.2727C213.45 59.2727 215.493 57.9698 216.974 55.3641L220.616 57.1407C219.639 58.9766 218.277 60.4127 216.53 61.4491C214.812 62.4854 212.858 63.0036 210.667 63.0036ZM204.138 48.7906H216.618C216.5 47.2804 215.878 46.0368 214.753 45.0597C213.657 44.0529 212.177 43.5495 210.311 43.5495C208.772 43.5495 207.439 44.0233 206.314 44.9708C205.218 45.9184 204.493 47.1916 204.138 48.7906Z" fill="white"/>
<circle cx="224.388" cy="48.9658" r="2.60249" fill="#7630FA"/>
<path d="M59.8465 35.4829C66.1855 28.8671 65.9612 18.3651 59.3454 12.026C52.7296 5.68699 42.2276 5.91134 35.8886 12.5271L12.4692 36.9689C10.7901 38.7213 10.8495 41.5032 12.602 43.1823L30.2137 60.0573C31.9661 61.7365 34.748 61.6771 36.4271 59.9246L59.8465 35.4829Z" fill="#7630FA"/>
<path fill-rule="evenodd" clip-rule="evenodd" d="M5.84663 13.7512C-0.465135 20.393 -0.197553 30.894 6.44428 37.2058L30.9822 60.5243C32.7416 62.1962 35.5232 62.1253 37.1951 60.366L53.9974 42.685C55.6694 40.9256 55.5985 38.144 53.8391 36.4721L29.3012 13.1536C22.6594 6.84181 12.1584 7.10938 5.84663 13.7512ZM15.7864 28.2375C18.9318 28.1638 21.4219 25.5543 21.3482 22.4089C21.2746 19.2635 18.665 16.7734 15.5196 16.847C12.3743 16.9207 9.88415 19.5303 9.95782 22.6757C10.0315 25.821 12.641 28.3111 15.7864 28.2375Z" fill="#A271FF"/>
</svg>
