<svg width="44" height="39" viewBox="0 0 44 39" fill="none" xmlns="http://www.w3.org/2000/svg">
<path d="M35.7614 21.1438C39.5386 17.2016 39.405 10.9438 35.4628 7.16653C31.5206 3.38928 25.2628 3.52296 21.4856 7.46512L7.53066 22.0292C6.53011 23.0735 6.56552 24.7311 7.60975 25.7317L18.1041 35.787C19.1483 36.7875 20.8059 36.7521 21.8065 35.7079L35.7614 21.1438Z" fill="#7630FA"/>
<path fill-rule="evenodd" clip-rule="evenodd" d="M3.1386 7.9495C-0.622397 11.9072 -0.462959 18.1644 3.49472 21.9254L18.1162 35.8202C19.1645 36.8165 20.822 36.7742 21.8182 35.7259L31.8303 25.1903C32.8265 24.1419 32.7843 22.4845 31.7359 21.4882L17.1145 7.59338C13.1568 3.83238 6.89959 3.99182 3.1386 7.9495ZM9.06098 16.5811C10.9352 16.5372 12.419 14.9822 12.3751 13.108C12.3312 11.2337 10.7763 9.74993 8.90201 9.79383C7.02777 9.83772 5.54399 11.3927 5.58788 13.2669C5.63178 15.1412 7.18674 16.625 9.06098 16.5811Z" fill="#A271FF"/>
</svg>
