<svg width="321" height="93" viewBox="0 0 321 93" fill="none" xmlns="http://www.w3.org/2000/svg">
<g clip-path="url(#clip0_1_888)">
<path d="M308.238 0H11.8553C5.3078 0 0 5.20469 0 11.625V81.375C0 87.7953 5.3078 93 11.8553 93H308.238C314.785 93 320.093 87.7953 320.093 81.375V11.625C320.093 5.20469 314.785 0 308.238 0Z" fill="black"/>
<path d="M308.238 1.86C310.879 1.86 313.412 2.88881 315.279 4.7201C317.147 6.55139 318.196 9.03516 318.196 11.625V81.375C318.196 83.9648 317.147 86.4486 315.279 88.2799C313.412 90.1112 310.879 91.14 308.238 91.14H11.8553C9.21415 91.14 6.68118 90.1112 4.81361 88.2799C2.94604 86.4486 1.89685 83.9648 1.89685 81.375V11.625C1.89685 9.03516 2.94604 6.55139 4.81361 4.7201C6.68118 2.88881 9.21415 1.86 11.8553 1.86H308.238ZM308.238 0H11.8553C8.71108 0 5.69564 1.22477 3.47234 3.40488C1.24904 5.58499 0 8.54186 0 11.625V81.375C0 84.4581 1.24904 87.415 3.47234 89.5951C5.69564 91.7752 8.71108 93 11.8553 93H308.238C311.382 93 314.397 91.7752 316.621 89.5951C318.844 87.415 320.093 84.4581 320.093 81.375V11.625C320.093 8.54186 318.844 5.58499 316.621 3.40488C314.397 1.22477 311.382 0 308.238 0Z" fill="#A6A6A6"/>
<path d="M112.436 23.8084C112.475 24.661 112.337 25.5125 112.031 26.3117C111.726 27.1108 111.258 27.8411 110.657 28.4584C109.984 29.1403 109.171 29.675 108.272 30.0276C107.373 30.3802 106.408 30.5426 105.441 30.5044C104.468 30.5256 103.501 30.3509 102.6 29.991C101.698 29.631 100.882 29.0936 100.201 28.4119C98.8193 27.0261 98.0458 25.1651 98.0458 23.2271C98.0458 21.2891 98.8193 19.4281 100.201 18.0424C101.257 17.0303 102.595 16.3468 104.046 16.0779C105.497 15.8091 106.997 15.9667 108.357 16.5311C109.212 16.8758 109.975 17.4088 110.586 18.0889L109.33 19.3211C108.859 18.7649 108.262 18.324 107.587 18.0334C106.912 17.7428 106.177 17.6106 105.441 17.6471C104.512 17.6534 103.598 17.8828 102.78 18.3154C101.962 18.7479 101.264 19.3703 100.748 20.1282C100.232 20.8861 99.9128 21.7564 99.8189 22.6632C99.725 23.5699 99.859 24.4853 100.209 25.3295C100.559 26.1737 101.115 26.9209 101.828 27.5059C102.541 28.0909 103.389 28.4957 104.298 28.6851C105.207 28.8746 106.149 28.8427 107.043 28.5924C107.937 28.3421 108.754 27.881 109.424 27.2494C110.149 26.4707 110.569 25.4659 110.61 24.4129H105.441V22.7389H112.341C112.395 23.0931 112.426 23.4503 112.436 23.8084Z" fill="white" stroke="white" stroke-width="0.411304" stroke-miterlimit="10"/>
<path d="M123.295 17.9959H116.893V22.4134H122.726V24.0874H116.893V28.5049H123.295V30.2254H115.044V16.2754H123.295V17.9959Z" fill="white" stroke="white" stroke-width="0.411304" stroke-miterlimit="10"/>
<path d="M131.072 30.2254H129.246V17.9959H125.263V16.2754H135.15V17.9959H131.072V30.2254Z" fill="white" stroke="white" stroke-width="0.411304" stroke-miterlimit="10"/>
<path d="M142.121 30.2254V16.2754H143.947V30.2254H142.121Z" fill="white" stroke="white" stroke-width="0.411304" stroke-miterlimit="10"/>
<path d="M152.056 30.2254H150.23V17.9959H146.247V16.2754H156.016V17.9959H152.056V30.2254Z" fill="white" stroke="white" stroke-width="0.411304" stroke-miterlimit="10"/>
<path d="M174.534 28.4113C173.849 29.0834 173.036 29.6165 172.141 29.9803C171.246 30.344 170.286 30.5312 169.317 30.5312C168.349 30.5312 167.389 30.344 166.494 29.9803C165.599 29.6165 164.786 29.0834 164.101 28.4113C162.761 27.0141 162.014 25.1681 162.014 23.2498C162.014 21.3315 162.761 19.4855 164.101 18.0883C164.771 17.3973 165.582 16.8519 166.48 16.4875C167.379 16.123 168.345 15.9476 169.317 15.9725C170.288 15.9575 171.252 16.1374 172.149 16.5013C173.046 16.8652 173.858 17.4053 174.534 18.0883C175.216 18.7683 175.751 19.5754 176.11 20.462C176.468 21.3485 176.642 22.2964 176.62 23.2498C176.651 24.2044 176.482 25.155 176.123 26.0429C175.764 26.9308 175.223 27.7369 174.534 28.4113ZM165.453 27.2488C165.958 27.7507 166.559 28.1492 167.223 28.4213C167.886 28.6933 168.598 28.8333 169.317 28.8333C170.037 28.8333 170.749 28.6933 171.412 28.4213C172.075 28.1492 172.677 27.7507 173.182 27.2488C174.205 26.1587 174.773 24.7313 174.773 23.2498C174.773 21.7683 174.205 20.3409 173.182 19.2508C172.677 18.7489 172.075 18.3503 171.412 18.0783C170.749 17.8063 170.037 17.6663 169.317 17.6663C168.598 17.6663 167.886 17.8063 167.223 18.0783C166.559 18.3503 165.958 18.7489 165.453 19.2508C164.43 20.3409 163.862 21.7683 163.862 23.2498C163.862 24.7313 164.43 26.1587 165.453 27.2488Z" fill="white" stroke="white" stroke-width="0.411304" stroke-miterlimit="10"/>
<path d="M179.205 30.2254V16.2754H181.41L188.333 27.1331V24.4361V16.2754H190.159V30.2254H188.262L181.031 18.8561V21.5299V30.2254H179.205Z" fill="white" stroke="white" stroke-width="0.411304" stroke-miterlimit="10"/>
<path d="M161.564 50.5685C159.566 50.5731 157.615 51.1585 155.957 52.2507C154.298 53.3428 153.007 54.8926 152.247 56.7042C151.487 58.5158 151.292 60.5077 151.686 62.4281C152.08 64.3484 153.046 66.111 154.462 67.493C155.878 68.8749 157.68 69.814 159.641 70.1917C161.601 70.5693 163.631 70.3685 165.475 69.6146C167.319 68.8607 168.894 67.5876 169.999 65.9563C171.105 64.325 171.693 62.4087 171.689 60.4498C171.708 59.143 171.459 57.8457 170.956 56.6352C170.454 55.4248 169.708 54.3258 168.763 53.4039C167.819 52.4819 166.694 51.7557 165.458 51.2686C164.221 50.7815 162.897 50.5434 161.564 50.5685V50.5685ZM161.564 66.4483C160.34 66.5322 159.118 66.2531 158.057 65.647C156.997 65.041 156.147 64.1362 155.618 63.0501C155.088 61.9641 154.905 60.7471 155.09 59.5573C155.276 58.3675 155.822 57.26 156.658 56.3788C157.494 55.4975 158.581 54.8832 159.778 54.6158C160.975 54.3484 162.226 54.4402 163.369 54.8793C164.512 55.3183 165.494 56.0844 166.187 57.0778C166.88 58.0713 167.252 59.2462 167.255 60.4498C167.293 61.2124 167.175 61.9748 166.908 62.692C166.641 63.4093 166.23 64.0668 165.7 64.6259C165.169 65.1849 164.53 65.6342 163.82 65.9472C163.11 66.2602 162.343 66.4306 161.564 66.4483ZM139.466 50.5685C137.468 50.5731 135.517 51.1585 133.858 52.2507C132.2 53.3428 130.909 54.8926 130.149 56.7042C129.389 58.5158 129.193 60.5077 129.588 62.4281C129.982 64.3484 130.948 66.111 132.364 67.493C133.78 68.8749 135.582 69.814 137.542 70.1917C139.503 70.5693 141.533 70.3685 143.377 69.6146C145.221 68.8607 146.795 67.5876 147.901 65.9563C149.007 64.325 149.595 62.4087 149.59 60.4498C149.61 59.143 149.361 57.8457 148.858 56.6352C148.356 55.4248 147.61 54.3258 146.665 53.4039C145.72 52.4819 144.596 51.7557 143.359 51.2686C142.123 50.7815 140.798 50.5434 139.466 50.5685V50.5685ZM139.466 66.4483C138.241 66.5322 137.02 66.2531 135.959 65.647C134.898 65.041 134.048 64.1362 133.519 63.0501C132.99 61.9641 132.807 60.7471 132.992 59.5573C133.178 58.3675 133.724 57.26 134.56 56.3788C135.396 55.4975 136.483 54.8832 137.68 54.6158C138.877 54.3484 140.128 54.4402 141.271 54.8793C142.414 55.3183 143.395 56.0844 144.088 57.0778C144.781 58.0713 145.153 59.2462 145.156 60.4498C145.195 61.2124 145.077 61.9748 144.81 62.692C144.543 63.4093 144.132 64.0668 143.601 64.6259C143.071 65.1849 142.432 65.6342 141.722 65.9472C141.011 66.2602 140.244 66.4306 139.466 66.4483ZM113.195 53.6143V57.7993H123.438C123.277 59.7704 122.441 61.6304 121.066 63.077C120.039 64.1035 118.803 64.9071 117.439 65.4358C116.075 65.9644 114.613 66.2064 113.147 66.146C110.129 66.146 107.234 64.9702 105.099 62.8773C102.965 60.7844 101.766 57.9458 101.766 54.986C101.766 52.0262 102.965 49.1876 105.099 47.0947C107.234 45.0018 110.129 43.826 113.147 43.826C116.041 43.7838 118.835 44.8614 120.924 46.8253L123.935 43.8725C122.522 42.502 120.844 41.4217 119 40.6951C117.156 39.9685 115.182 39.6101 113.195 39.641C111.087 39.5606 108.984 39.8982 107.012 40.6337C105.041 41.3692 103.241 42.4874 101.72 43.9214C100.2 45.3553 98.9906 47.0754 98.1644 48.9787C97.3382 50.8819 96.9124 52.9291 96.9124 54.9976C96.9124 57.0661 97.3382 59.1133 98.1644 61.0166C98.9906 62.9199 100.2 64.64 101.72 66.0739C103.241 67.5078 105.041 68.6261 107.012 69.3616C108.984 70.0971 111.087 70.4347 113.195 70.3543C115.223 70.4337 117.245 70.0915 119.129 69.3502C121.013 68.6089 122.716 67.4853 124.125 66.053C126.615 63.3709 127.942 59.8434 127.824 56.2183C127.832 55.3458 127.761 54.4743 127.611 53.6143H113.195ZM220.627 56.8693C220.009 55.0854 218.853 53.5277 217.311 52.4026C215.77 51.2774 213.917 50.6379 211.997 50.5685C210.7 50.566 209.416 50.8244 208.225 51.3277C207.034 51.831 205.961 52.5685 205.072 53.4946C204.183 54.4207 203.497 55.5158 203.057 56.7121C202.617 57.9084 202.431 59.1805 202.512 60.4498C202.492 62.5721 203.173 64.644 204.452 66.3559C205.732 68.0678 207.542 69.3278 209.612 69.9477C211.682 70.5677 213.901 70.5143 215.938 69.7956C217.974 69.0769 219.719 67.7313 220.912 65.96L217.474 63.635C216.961 64.4727 216.234 65.1644 215.365 65.6415C214.496 66.1187 213.514 66.3648 212.518 66.3553C211.491 66.3969 210.474 66.1327 209.602 65.5974C208.731 65.0621 208.044 64.2808 207.634 63.356L221.125 57.8923L220.627 56.8693ZM206.875 60.1708C206.827 59.4486 206.926 58.7242 207.167 58.0402C207.408 57.3561 207.786 56.7261 208.279 56.1869C208.771 55.6478 209.368 55.2104 210.035 54.9004C210.702 54.5904 211.425 54.414 212.163 54.3815C212.927 54.3358 213.687 54.5122 214.349 54.8885C215.012 55.2649 215.546 55.8245 215.885 56.4973L206.875 60.1708ZM195.921 69.7498H200.355V40.6873H195.921V69.7498ZM188.665 52.7773H188.499C187.837 52.0376 187.02 51.4469 186.103 51.0456C185.186 50.6444 184.192 50.442 183.188 50.4523C180.597 50.5755 178.154 51.6716 176.364 53.5133C174.575 55.3551 173.577 57.8014 173.577 60.3451C173.577 62.8889 174.575 65.3352 176.364 67.177C178.154 69.0187 180.597 70.1148 183.188 70.238C184.193 70.2578 185.191 70.0596 186.109 69.6577C187.027 69.2558 187.843 68.6601 188.499 67.913H188.665V69.3313C188.665 73.121 186.603 75.1438 183.283 75.1438C182.174 75.1199 181.098 74.7734 180.19 74.1483C179.282 73.5232 178.585 72.6477 178.185 71.633L174.344 73.1908C175.054 74.9397 176.289 76.4362 177.885 77.4824C179.481 78.5285 181.363 79.0751 183.283 79.0498C188.476 79.0498 192.767 76.0505 192.767 68.75V51.1498H188.665V52.7773ZM183.568 66.4483C182.014 66.3533 180.556 65.6812 179.49 64.5689C178.424 63.4566 177.831 61.9877 177.831 60.4614C177.831 58.9351 178.424 57.4662 179.49 56.3539C180.556 55.2416 182.014 54.5695 183.568 54.4745C184.327 54.5067 185.072 54.6882 185.758 55.0084C186.444 55.3286 187.058 55.7809 187.562 56.3384C188.067 56.8959 188.452 57.5472 188.694 58.2535C188.936 58.9598 189.032 59.7067 188.974 60.4498C189.038 61.1954 188.948 61.9461 188.708 62.6566C188.469 63.367 188.085 64.0224 187.579 64.5831C187.074 65.1438 186.458 65.5982 185.768 65.9188C185.079 66.2394 184.33 66.4195 183.568 66.4483V66.4483ZM241.398 40.6873H230.775V69.7498H235.209V58.7293H241.398C242.661 58.8183 243.93 58.6511 245.125 58.2381C246.32 57.825 247.415 57.1751 248.343 56.3287C249.27 55.4823 250.01 54.4576 250.515 53.3186C251.021 52.1796 251.282 50.9506 251.282 49.7083C251.282 48.466 251.021 47.237 250.515 46.0979C250.01 44.9589 249.27 43.9342 248.343 43.0878C247.415 42.2415 246.32 41.5915 245.125 41.1785C243.93 40.7655 242.661 40.5983 241.398 40.6873V40.6873ZM241.398 54.6373H235.209V44.7328H241.493C242.159 44.7328 242.819 44.8615 243.434 45.1115C244.05 45.3615 244.609 45.728 245.08 46.1901C245.552 46.6521 245.925 47.2006 246.18 47.8042C246.435 48.4079 246.567 49.0549 246.567 49.7083C246.567 50.3617 246.435 51.0087 246.18 51.6123C245.925 52.216 245.552 52.7645 245.08 53.2265C244.609 53.6885 244.05 54.055 243.434 54.305C242.819 54.5551 242.159 54.6838 241.493 54.6838L241.398 54.6373ZM268.76 50.4755C267.145 50.3779 265.537 50.7465 264.133 51.5358C262.73 52.325 261.593 53.5003 260.864 54.9163L264.776 56.5205C265.172 55.8216 265.765 55.2499 266.484 54.8745C267.204 54.499 268.019 54.3359 268.831 54.4048C269.394 54.3403 269.964 54.3864 270.509 54.5404C271.053 54.6943 271.561 54.9531 272.002 55.3015C272.444 55.65 272.81 56.0811 273.08 56.5699C273.349 57.0586 273.517 57.5951 273.573 58.148V58.427C272.147 57.6921 270.56 57.3091 268.949 57.311C264.729 57.311 260.414 59.636 260.414 63.8675C260.455 64.7669 260.681 65.6489 261.077 66.4612C261.473 67.2734 262.032 67.9993 262.72 68.5957C263.408 69.1921 264.211 69.6468 265.081 69.933C265.952 70.2191 266.872 70.3307 267.788 70.2613C268.9 70.3216 270.009 70.0907 271.001 69.5923C271.993 69.0938 272.831 68.3458 273.431 67.4248H273.573V69.7498H277.841V58.5665C277.841 53.4748 273.905 50.522 268.855 50.522L268.76 50.4755ZM268.214 66.4018C266.768 66.4018 264.753 65.681 264.753 63.9373C264.753 61.6123 267.266 60.8218 269.495 60.8218C270.903 60.7877 272.295 61.1249 273.526 61.7983C273.377 63.0609 272.766 64.2278 271.807 65.0828C270.848 65.9378 269.605 66.4229 268.309 66.4483L268.214 66.4018ZM293.395 51.1498L288.321 63.7513H288.179L282.915 51.1498H278.173L286.068 68.7733L281.563 78.5615H286.187L298.327 51.1498H293.395ZM253.561 69.7498H257.971V40.6873H253.561V69.7498Z" fill="white"/>
<path d="M24.7537 17.5309C23.9724 18.4368 23.5737 19.6012 23.6393 20.7859V72.2149C23.5587 73.4016 23.9592 74.5714 24.7537 75.4699L24.9197 75.6559L54.2972 46.8492V46.1517L24.9197 17.3682L24.7537 17.5309Z" fill="url(#paint0_linear_1_888)"/>
<path d="M64.0186 56.4513L54.2972 46.8491V46.1516L64.0186 36.5493L64.232 36.6888L75.8739 43.1523C79.1934 44.9891 79.1934 48.0116 75.8739 49.8716L64.2794 56.3351L64.0186 56.4513Z" fill="url(#paint1_linear_1_888)"/>
<path d="M64.3031 56.311L54.2972 46.4995L24.7538 75.469C25.4238 76.0538 26.2814 76.3902 27.1778 76.42C28.0743 76.4497 28.9531 76.1708 29.6619 75.6318L64.3031 56.311" fill="url(#paint2_linear_1_888)"/>
<path d="M64.3031 36.6883L29.6619 17.3908C28.9577 16.8442 28.0796 16.5586 27.1819 16.5841C26.2842 16.6096 25.4245 16.9446 24.7538 17.5303L54.2972 46.4998L64.3031 36.6883Z" fill="url(#paint3_linear_1_888)"/>
<path opacity="0.2" d="M64.0185 56.1025L29.6619 75.2838C28.9789 75.7893 28.1465 76.0627 27.2908 76.0627C26.4351 76.0627 25.6028 75.7893 24.9198 75.2838V75.2838L24.7538 75.4465L24.9198 75.6325C25.6028 76.138 26.4351 76.4114 27.2908 76.4114C28.1465 76.4114 28.9789 76.138 29.6619 75.6325L64.3031 56.3118L64.0185 56.1025Z" fill="black"/>
<path opacity="0.12" d="M24.7538 75.144C23.9922 74.2218 23.6189 73.049 23.7105 71.8657V72.2145C23.6298 73.4011 24.0303 74.571 24.8249 75.4695L24.9909 75.3067L24.7538 75.144Z" fill="black"/>
<path opacity="0.12" d="M75.8739 49.522L64.0186 56.1018L64.232 56.311L75.8739 49.8475C76.5611 49.5626 77.1572 49.1012 77.5995 48.512C78.0418 47.9228 78.3139 47.2276 78.3872 46.4995C78.2389 47.1611 77.9343 47.7794 77.4977 48.3043C77.0611 48.8293 76.5049 49.2464 75.8739 49.522Z" fill="black"/>
<path opacity="0.25" d="M29.6619 17.7164L75.8738 43.4774C76.5049 43.753 77.0611 44.17 77.4977 44.695C77.9343 45.22 78.2389 45.8383 78.3872 46.4999C78.3139 45.7718 78.0418 45.0766 77.5995 44.4874C77.1572 43.8982 76.561 43.4368 75.8738 43.1519L29.6619 17.3909C26.3661 15.5309 23.6394 17.0654 23.6394 20.7854V21.1341C23.7105 17.4141 26.3661 15.8796 29.6619 17.7164Z" fill="white"/>
</g>
<defs>
<linearGradient id="paint0_linear_1_888" x1="51.689" y1="20.2512" x2="12.683" y2="60.0299" gradientUnits="userSpaceOnUse">
<stop stop-color="#00A0FF"/>
<stop offset="0.01" stop-color="#00A1FF"/>
<stop offset="0.26" stop-color="#00BEFF"/>
<stop offset="0.51" stop-color="#00D2FF"/>
<stop offset="0.76" stop-color="#00DFFF"/>
<stop offset="1" stop-color="#00E3FF"/>
</linearGradient>
<linearGradient id="paint1_linear_1_888" x1="80.2129" y1="46.5003" x2="22.857" y2="46.5003" gradientUnits="userSpaceOnUse">
<stop stop-color="#FFE000"/>
<stop offset="0.41" stop-color="#FFBD00"/>
<stop offset="0.78" stop-color="#FFA500"/>
<stop offset="1" stop-color="#FF9C00"/>
</linearGradient>
<linearGradient id="paint2_linear_1_888" x1="58.8733" y1="51.847" x2="5.96605" y2="105.779" gradientUnits="userSpaceOnUse">
<stop stop-color="#FF3A44"/>
<stop offset="1" stop-color="#C31162"/>
</linearGradient>
<linearGradient id="paint3_linear_1_888" x1="17.3087" y1="0.418298" x2="40.9261" y2="24.5036" gradientUnits="userSpaceOnUse">
<stop stop-color="#32A071"/>
<stop offset="0.07" stop-color="#2DA771"/>
<stop offset="0.48" stop-color="#15CF74"/>
<stop offset="0.8" stop-color="#06E775"/>
<stop offset="1" stop-color="#00F076"/>
</linearGradient>
<clipPath id="clip0_1_888">
<rect width="320.093" height="93" fill="white"/>
</clipPath>
</defs>
</svg>
