<svg width="26" height="25" viewBox="0 0 26 25" fill="none" xmlns="http://www.w3.org/2000/svg">
<path fill-rule="evenodd" clip-rule="evenodd" d="M5.00016 6.1577V19.9577C5.00016 20.5343 5.00094 20.9065 5.02409 21.1899C5.04629 21.4615 5.08396 21.5623 5.10916 21.6117C5.20503 21.7999 5.35801 21.9528 5.54617 22.0487C5.59562 22.0739 5.69634 22.1116 5.968 22.1338C6.25134 22.1569 6.62361 22.1577 7.20016 22.1577H18.8002C19.3767 22.1577 19.749 22.1569 20.0323 22.1338C20.304 22.1116 20.4047 22.0739 20.4542 22.0487C20.6423 21.9528 20.7953 21.7999 20.8912 21.6117C20.9164 21.5623 20.954 21.4615 20.9762 21.1899C20.9994 20.9065 21.0002 20.5343 21.0002 19.9577V6.1577H23.0002V19.9963C23.0002 20.5234 23.0002 20.9782 22.9696 21.3527C22.9373 21.7481 22.866 22.1413 22.6732 22.5197C22.3856 23.0842 21.9266 23.5431 21.3621 23.8307C20.9838 24.0235 20.5905 24.0948 20.1952 24.1271C19.8206 24.1577 19.3659 24.1577 18.8387 24.1577H7.1616C6.63446 24.1577 6.1797 24.1577 5.80513 24.1271C5.40979 24.0948 5.01657 24.0235 4.63819 23.8307C4.07371 23.5431 3.61476 23.0842 3.32714 22.5197C3.13435 22.1413 3.06303 21.7481 3.03073 21.3527C3.00013 20.9782 3.00014 20.5234 3.00016 19.9962L3.00016 6.1577H5.00016Z" fill="white"/>
<path fill-rule="evenodd" clip-rule="evenodd" d="M11.5683 15.1577C11.5789 15.1577 11.5895 15.1577 11.6002 15.1577H14.4002C14.4108 15.1577 14.4214 15.1577 14.4321 15.1577C14.6844 15.1577 14.9302 15.1576 15.1384 15.1746C15.367 15.1933 15.6367 15.2374 15.9081 15.3757C16.2845 15.5674 16.5904 15.8734 16.7822 16.2497C16.9205 16.5211 16.9645 16.7909 16.9832 17.0195C17.0002 17.2276 17.0002 17.4734 17.0002 17.7258C17.0002 17.7364 17.0002 17.7471 17.0002 17.7577V24.1577H9.00016V17.7577C9.00016 17.7471 9.00016 17.7364 9.00016 17.7258C9.00013 17.4734 9.0001 17.2276 9.01711 17.0195C9.03579 16.7909 9.07985 16.5211 9.21815 16.2497C9.4099 15.8734 9.71586 15.5674 10.0922 15.3757C10.3636 15.2374 10.6333 15.1933 10.8619 15.1746C11.0701 15.1576 11.3159 15.1577 11.5683 15.1577ZM11.0116 17.1692C11.0112 17.1733 11.0108 17.1777 11.0105 17.1823C11.0009 17.2989 11.0002 17.4612 11.0002 17.7577V22.1577H15.0002V17.7577C15.0002 17.4612 14.9994 17.2989 14.9899 17.1823C14.9895 17.1777 14.9891 17.1733 14.9887 17.1692C14.9846 17.1688 14.9802 17.1684 14.9755 17.168C14.8589 17.1585 14.6967 17.1577 14.4002 17.1577H11.6002C11.3036 17.1577 11.1414 17.1585 11.0248 17.168C11.0202 17.1684 11.0158 17.1688 11.0116 17.1692Z" fill="white"/>
<path fill-rule="evenodd" clip-rule="evenodd" d="M0.136384 8.66157C0.414664 9.13863 1.02698 9.29976 1.50403 9.02148L13.0002 2.31541L24.4963 9.02148C24.9733 9.29976 25.5857 9.13863 25.8639 8.66157C26.1422 8.18452 25.9811 7.57221 25.504 7.29392L13.0002 0L0.496292 7.29392C0.0192398 7.57221 -0.141896 8.18452 0.136384 8.66157Z" fill="white"/>
</svg>
