<svg width="158" height="45" viewBox="0 0 158 45" fill="none" xmlns="http://www.w3.org/2000/svg">
<path d="M64.016 20.5215C59.7196 20.5215 56.2577 23.9834 56.2577 28.2798C56.2577 32.5453 59.7196 36.0381 64.016 36.0381C65.1597 36.0381 66.736 36.069 68.7761 34.709C69.487 34.2453 69.8888 33.4417 69.5179 32.669C69.147 31.9271 68.1888 31.4944 67.4779 31.958C65.9942 32.9162 64.7269 32.978 64.016 32.978C61.9451 32.978 60.2141 31.6489 59.565 29.7944H70.2288C71.0943 29.7944 71.7743 29.1144 71.7743 28.2798C71.7743 23.2416 67.7561 20.5215 64.016 20.5215ZM64.016 23.5816C65.8706 23.5816 67.8488 24.5707 68.4979 26.7343H59.565C60.2141 24.9107 61.9451 23.5816 64.016 23.5816ZM80.5123 20.4597C76.2158 20.4597 72.754 23.9216 72.754 28.218C72.754 32.4835 76.2158 35.9763 80.5123 35.9763C84.7778 35.9763 88.2705 32.4835 88.2705 28.218V28.1871V14.3396C88.2705 13.5051 87.5905 12.8251 86.7251 12.8251C85.8905 12.8251 85.2105 13.5051 85.2105 14.3396V22.0361C83.9123 21.047 82.2741 20.4597 80.5123 20.4597ZM80.5123 32.9162C77.9159 32.9162 75.814 30.7835 75.814 28.218C75.814 25.6216 77.9159 23.5197 80.5123 23.5197C83.1087 23.5197 85.2105 25.6216 85.2105 28.1871V28.218C85.2105 30.8144 83.1087 32.9162 80.5123 32.9162ZM97.8233 20.5215C93.5268 20.5215 90.065 23.9834 90.065 28.2798C90.065 32.5453 93.5268 36.0381 97.8233 36.0381C98.9669 36.0381 100.543 36.069 102.583 34.709C103.294 34.2453 103.696 33.4417 103.325 32.669C102.954 31.9271 101.996 31.4944 101.285 31.958C99.8015 32.9162 98.5342 32.978 97.8233 32.978C95.7523 32.978 94.0214 31.6489 93.3723 29.7944H104.036C104.902 29.7944 105.582 29.1144 105.582 28.2798C105.582 23.2416 101.563 20.5215 97.8233 20.5215ZM97.8233 23.5816C99.6778 23.5816 101.656 24.5707 102.305 26.7343H93.3723C94.0214 24.9107 95.7523 23.5816 97.8233 23.5816ZM119.713 33.4726L114.087 26.7034L119.496 23.1488C120.145 22.6234 120.238 21.6343 119.713 20.9852C119.156 20.3361 118.198 20.2742 117.549 20.7997L110.533 25.4052V14.4014C110.533 13.5669 109.822 12.8869 108.987 12.8869C108.153 12.8869 107.473 13.5669 107.473 14.4014V28.218V34.4308C107.473 35.2963 108.153 35.9763 108.987 35.9763C109.822 35.9763 110.533 35.2963 110.533 34.4308V29.0216L111.491 28.3725L117.364 35.4199C117.642 35.7908 118.075 35.9763 118.538 35.9763C118.878 35.9763 119.218 35.8526 119.496 35.6054C120.145 35.0799 120.238 34.1217 119.713 33.4726ZM127.737 20.5215C123.44 20.5215 119.978 23.9834 119.978 28.2798C119.978 32.5453 123.44 36.0381 127.737 36.0381C128.88 36.0381 130.457 36.069 132.497 34.709C133.208 34.2453 133.609 33.4417 133.239 32.669C132.868 31.9271 131.909 31.4944 131.199 31.958C129.715 32.9162 128.448 32.978 127.737 32.978C125.666 32.978 123.935 31.6489 123.286 29.7944H133.949C134.815 29.7944 135.495 29.1144 135.495 28.2798C135.495 23.2416 131.477 20.5215 127.737 20.5215ZM127.737 23.5816C129.591 23.5816 131.569 24.5707 132.219 26.7343H123.286C123.935 24.9107 125.666 23.5816 127.737 23.5816ZM145.093 20.5215C140.797 20.5215 137.335 23.9834 137.335 28.2798C137.335 32.5453 140.797 36.0381 145.093 36.0381C146.237 36.0381 147.813 36.069 149.853 34.709C150.564 34.2453 150.966 33.4417 150.595 32.669C150.224 31.9271 149.266 31.4944 148.555 31.958C147.071 32.9162 145.804 32.978 145.093 32.978C143.022 32.978 141.291 31.6489 140.642 29.7944H151.306C152.171 29.7944 152.851 29.1144 152.851 28.2798C152.851 23.2416 148.833 20.5215 145.093 20.5215ZM145.093 23.5816C146.948 23.5816 148.926 24.5707 149.575 26.7343H140.642C141.291 24.9107 143.022 23.5816 145.093 23.5816Z" fill="white"/>
<circle cx="156.167" cy="33.6851" r="1.8111" fill="#7630FA"/>
<path d="M41.655 24.6928C46.0664 20.0887 45.9103 12.7803 41.3063 8.36886C36.7023 3.95743 29.3938 4.11356 24.9824 8.71757L8.68458 25.7269C7.51604 26.9464 7.55739 28.8824 8.77695 30.0509L21.0331 41.7944C22.2527 42.963 24.1886 42.9216 25.3572 41.7021L41.655 24.6928Z" fill="#7630FA"/>
<path fill-rule="evenodd" clip-rule="evenodd" d="M3.55622 9.28839C-0.836219 13.9105 -0.650006 21.2183 3.97213 25.6107L21.0484 41.8384C22.2727 43.0019 24.2085 42.9525 25.372 41.7282L37.065 29.4238C38.2285 28.1994 38.1792 26.2636 36.9548 25.1001L19.8785 8.87248C15.2564 4.48005 7.94865 4.66626 3.55622 9.28839ZM10.4762 19.3693C12.6651 19.3181 14.398 17.5021 14.3467 15.3131C14.2954 13.1242 12.4794 11.3913 10.2905 11.4426C8.10159 11.4939 6.36869 13.3099 6.41996 15.4988C6.47123 17.6877 8.28725 19.4206 10.4762 19.3693Z" fill="#A271FF"/>
</svg>
