<svg width="42" height="42" viewBox="0 0 42 42" fill="none" xmlns="http://www.w3.org/2000/svg">
<path fill-rule="evenodd" clip-rule="evenodd" d="M0.828125 21.0523C0.828125 9.68434 10.0437 0.46875 21.4117 0.46875C32.7797 0.46875 41.9953 9.68434 41.9953 21.0523C41.9953 32.4204 32.7797 41.6359 21.4117 41.6359C10.0437 41.6359 0.828125 32.4204 0.828125 21.0523Z" fill="#55ACEE"/>
<path fill-rule="evenodd" clip-rule="evenodd" d="M20.7953 17.1993L20.8384 17.9115L20.1186 17.8243C17.4982 17.49 15.2089 16.3562 13.2652 14.4521L12.315 13.5073L12.0702 14.205C11.5519 15.7603 11.883 17.4028 12.9629 18.5075C13.5388 19.118 13.4092 19.2052 12.4157 18.8418C12.0702 18.7255 11.7678 18.6383 11.739 18.6819C11.6383 18.7837 11.9838 20.1064 12.2574 20.6297C12.6317 21.3564 13.3948 22.0687 14.2299 22.4902L14.9354 22.8245L14.1003 22.8391C13.294 22.8391 13.2652 22.8536 13.3516 23.1588C13.6395 24.1037 14.777 25.1066 16.044 25.5427L16.9366 25.8479L16.1592 26.313C15.0073 26.9817 13.6539 27.3596 12.3006 27.3887C11.6527 27.4032 11.1199 27.4613 11.1199 27.505C11.1199 27.6503 12.8765 28.4643 13.8987 28.7841C16.9654 29.7289 20.6081 29.3219 23.3437 27.7085C25.2874 26.5601 27.2311 24.2781 28.1381 22.0687C28.6277 20.8913 29.1172 18.7401 29.1172 17.708C29.1172 17.0394 29.1604 16.9522 29.9667 16.1527C30.4418 15.6876 30.8881 15.1789 30.9745 15.0335C31.1185 14.7573 31.1041 14.7573 30.3698 15.0044C29.146 15.4405 28.9732 15.3824 29.5779 14.7283C30.0242 14.2631 30.557 13.4201 30.557 13.173C30.557 13.1294 30.341 13.202 30.0962 13.3329C29.8371 13.4782 29.2612 13.6962 28.8292 13.8271L28.0517 14.0742L27.3463 13.5945C26.9575 13.3329 26.4104 13.0421 26.1224 12.9549C25.3882 12.7514 24.2651 12.7805 23.6028 13.0131C21.8031 13.6672 20.6657 15.3533 20.7953 17.1993Z" fill="white"/>
</svg>
