<svg width="257" height="217" viewBox="0 0 257 217" fill="none" xmlns="http://www.w3.org/2000/svg">
<path d="M237.919 112.512C263.307 86.0082 262.408 43.9363 235.913 18.5414C209.416 -6.85333 167.356 -5.95462 141.967 20.5489L48.1738 118.464C41.4488 125.486 41.6869 136.63 48.7054 143.357L119.24 210.959C126.259 217.686 137.399 217.448 144.124 210.427L237.919 112.512Z" fill="#7630FA"/>
<path fill-rule="evenodd" clip-rule="evenodd" d="M18.6667 23.8311C-6.61175 50.4388 -5.54016 92.5067 21.0602 117.792L119.335 211.208C126.381 217.906 137.522 217.622 144.217 210.574L211.51 139.743C218.206 132.694 217.923 121.55 210.877 114.853L112.602 21.4369C86.0015 -3.84863 43.9454 -2.77672 18.6667 23.8311ZM58.4915 81.8628C71.0888 81.5676 81.0616 71.1135 80.7665 58.5129C80.4715 45.9121 70.0203 35.9365 57.423 36.2317C44.8259 36.5268 34.853 46.9809 35.148 59.5816C35.443 72.1822 45.8943 82.1579 58.4915 81.8628Z" fill="#A271FF"/>
</svg>
